<?xml version="1.0"?>
<svg xmlns="http://www.w3.org/2000/svg" xmlns:xlink="http://www.w3.org/1999/xlink" version="1.1" id="Capa_1" x="0px" y="0px" viewBox="0 0 512 512" style="enable-background:new 0 0 512 512;" xml:space="preserve" width="512px" height="512px" class=""><g><path style="fill:#C8C6D4" d="M392,0H120c-13.234,0-24,10.766-24,24v464c0,13.234,10.766,24,24,24h272c13.234,0,24-10.766,24-24V24  C416,10.766,405.234,0,392,0z" data-original="#C8C6D4" class=""/><path style="fill:#B6B3C6;" d="M120,488V24c0-13.234,10.766-24,24-24h-24c-13.234,0-24,10.766-24,24v464c0,13.234,10.766,24,24,24  h24C130.766,512,120,501.234,120,488z" data-original="#B6B3C6" class=""/><g>
	<path style="fill:#645BA5;" d="M96,488c0,13.234,10.766,24,24,24h272c13.234,0,24-10.766,24-24v-40H96V488z" data-original="#645BA5" class=""/>
	<path style="fill:#645BA5;" d="M392,0H120c-13.234,0-24,10.766-24,24v40h320V24C416,10.766,405.234,0,392,0z" data-original="#645BA5" class=""/>
</g><g>
	<path style="opacity:0.5;fill:#494170;enable-background:new    ;" d="M120,488v-40H96v40c0,13.234,10.766,24,24,24h24   C130.766,512,120,501.234,120,488z"/>
	<path style="opacity:0.5;fill:#494170;enable-background:new    ;" d="M144,0h-24c-13.234,0-24,10.766-24,24v40h24V24   C120,10.766,130.766,0,144,0z"/>
	<path style="fill:#494170;" d="M257,40h-1c-4.418,0-8-3.582-8-8s3.582-8,8-8h1c4.418,0,8,3.582,8,8S261.418,40,257,40z" data-original="#494170" class=""/>
	<path style="fill:#494170;" d="M289,40h-1c-4.418,0-8-3.582-8-8s3.582-8,8-8h1c4.418,0,8,3.582,8,8S293.418,40,289,40z" data-original="#494170" class=""/>
	<path style="fill:#494170;" d="M225,40h-1c-4.418,0-8-3.582-8-8s3.582-8,8-8h1c4.418,0,8,3.582,8,8S229.418,40,225,40z" data-original="#494170" class=""/>
	<path style="fill:#494170;" d="M280,488h-48c-4.418,0-8-3.582-8-8s3.582-8,8-8h48c4.418,0,8,3.582,8,8S284.418,488,280,488z" data-original="#494170" class=""/>
</g><g>
	<path style="fill:#C8C6D4" d="M344,112h-8v-8c0-4.418-3.582-8-8-8s-8,3.582-8,8v8h-8c-4.418,0-8,3.582-8,8s3.582,8,8,8h8v8   c0,4.418,3.582,8,8,8s8-3.582,8-8v-8h8c4.418,0,8-3.582,8-8S348.418,112,344,112z" data-original="#F26B6B" class="" data-old_color="#F26B6B"/>
	<path style="fill:#C8C6D4" d="M272,368h-8v-8c0-4.418-3.582-8-8-8s-8,3.582-8,8v8h-8c-4.418,0-8,3.582-8,8s3.582,8,8,8h8v8   c0,4.418,3.582,8,8,8s8-3.582,8-8v-8h8c4.418,0,8-3.582,8-8S276.418,368,272,368z" data-original="#F26B6B" class="" data-old_color="#F26B6B"/>
	<path style="fill:#C8C6D4" d="M176,152h-8v-8c0-4.418-3.582-8-8-8s-8,3.582-8,8v8h-8c-4.418,0-8,3.582-8,8s3.582,8,8,8h8v8   c0,4.418,3.582,8,8,8s8-3.582,8-8v-8h8c4.418,0,8-3.582,8-8S180.418,152,176,152z" data-original="#F26B6B" class="" data-old_color="#F26B6B"/>
</g><g>
	<path style="fill:#928DA9;" d="M256,208c-4.418,0-8-3.582-8-8v-24c0-4.418,3.582-8,8-8s8,3.582,8,8v24   C264,204.418,260.418,208,256,208z" data-original="#928DA9" class=""/>
	<path style="fill:#928DA9;" d="M303.994,216.002c-1.202,0-2.423-0.272-3.571-0.847c-3.952-1.976-5.554-6.781-3.578-10.733l8-16   c1.976-3.952,6.781-5.554,10.733-3.578s5.554,6.781,3.578,10.733l-8,16C309.754,214.381,306.928,216.002,303.994,216.002z" data-original="#928DA9" class=""/>
	<path style="fill:#928DA9;" d="M208.006,216.002c-2.935,0-5.76-1.621-7.162-4.424l-8-16c-1.976-3.952-0.375-8.757,3.578-10.733   c3.954-1.976,8.758-0.374,10.733,3.578l8,16c1.976,3.952,0.375,8.757-3.578,10.733   C210.429,215.729,209.208,216.002,208.006,216.002z" data-original="#928DA9" class=""/>
</g><path style="fill:#EDECF1;" d="M373.73,250.417C371.406,248.032,316.121,192,256,192s-115.406,56.032-117.73,58.417  c-3.027,3.107-3.027,8.059,0,11.166C140.594,263.968,195.879,320,256,320s115.406-56.032,117.73-58.417  C376.757,258.476,376.757,253.524,373.73,250.417z" data-original="#EDECF1"/><path style="fill:#DBD9E2;" d="M272,304c-60.121,0-115.406-56.032-117.73-58.417c-2.132-2.188-2.755-5.291-1.884-8.02  c-8.348,6.997-13.445,12.165-14.116,12.854c-3.027,3.107-3.027,8.059,0,11.166C140.594,263.968,195.879,320,256,320  s115.406-56.032,117.73-58.417c0.895-0.918,1.518-2,1.884-3.146C355.059,275.665,314.756,304,272,304z" data-original="#DBD9E2" class=""/><path style="fill:#FFE529" d="M256,208c-26.467,0-48,21.533-48,48s21.533,48,48,48s48-21.533,48-48S282.467,208,256,208z" data-original="#A3C767" class="" data-old_color="#A3C767"/><path style="fill:#E6CB00" d="M272,288c-26.467,0-48-21.533-48-48c0-9.142,2.571-17.694,7.025-24.975  C217.228,223.466,208,238.675,208,256c0,26.467,21.533,48,48,48c17.325,0,32.534-9.228,40.975-23.025  C289.694,285.429,281.142,288,272,288z" data-original="#8EAD5A" class="active-path" data-old_color="#8EAD5A"/></g> </svg>
