<?xml version="1.0"?>
<svg xmlns="http://www.w3.org/2000/svg" height="512px" viewBox="-106 0 512 512" width="512px" class=""><g><path d="m261.5 504.5h-224c-16.570312 0-30-13.429688-30-30v-437c0-16.570312 13.429688-30 30-30h224c16.570312 0 30 13.429688 30 30v437c0 16.570312-13.429688 30-30 30zm0 0" fill="#bdf9ff" data-original="#BDF9FF"/><path d="m261.5 7.5h-30c16.570312 0 30 13.429688 30 30v437c0 16.570312-13.429688 30-30 30h30c16.570312 0 30-13.429688 30-30v-437c0-16.570312-13.429688-30-30-30zm0 0" fill="#8cf2ff" data-original="#8CF2FF" class=""/><path d="m261.5 504.5h-224c-16.570312 0-30-13.429688-30-30v-34.5h284v34.5c0 16.570312-13.429688 30-30 30zm0 0" fill="#4380a0" data-original="#4380A0"/><path d="m261.5 440v34.5c0 16.570312-13.429688 30-30 30h30c16.570312 0 30-13.429688 30-30v-34.5zm0 0" fill="#3b7191" data-original="#3B7191" class=""/><path d="m261.5 0h-224c-20.679688 0-37.5 16.820312-37.5 37.5v437c0 20.679688 16.820312 37.5 37.5 37.5h224c20.679688 0 37.5-16.820312 37.5-37.5v-437c0-20.679688-16.820312-37.5-37.5-37.5zm22.5 474.5c0 12.40625-10.09375 22.5-22.5 22.5h-224c-12.40625 0-22.5-10.09375-22.5-22.5v-437c0-12.40625 10.09375-22.5 22.5-22.5h224c12.40625 0 22.5 10.09375 22.5 22.5zm0 0" fill="#4380a0" data-original="#4380A0"/><path d="m169.5 464h-40c-4.140625 0-7.5 3.355469-7.5 7.5s3.359375 7.5 7.5 7.5h40c4.144531 0 7.5-3.355469 7.5-7.5s-3.355469-7.5-7.5-7.5zm0 0" fill="#bdf9ff" data-original="#BDF9FF"/><path d="m211.5 48h-124c-8.835938 0-16-7.164062-16-16v-24h156v24c0 8.835938-7.164062 16-16 16zm0 0" fill="#4380a0" data-original="#4380A0"/><path d="m131.5 338.578125h-71.5c-2.210938 0-4-1.792969-4-4v-51.410156c0-2.207031 1.789062-4 4-4h71.5zm0 0" fill="#4380a0" data-original="#4380A0"/><path d="m239 359h-94.207031c-31.917969 0-57.792969-25.875-57.792969-57.792969v-32.207031c0-2.210938 1.789062-4 4-4h148c2.210938 0 4 1.789062 4 4v86c0 2.210938-1.789062 4-4 4zm0 0" fill="#ff5622" data-original="#FF5622" class="" style="fill:#FFD54F" data-old_color="#ff5622"/><path d="m213 265v94h26c2.210938 0 4-1.789062 4-4v-86c0-2.210938-1.789062-4-4-4zm0 0" fill="#e8491d" data-original="#E8491D" class="" style="fill:#FFB229" data-old_color="#e8491d"/><path d="m165 216c0 8.558594-6.941406 15.5-15.5 15.5s-15.5-6.941406-15.5-15.5 6.941406-15.5 15.5-15.5 15.5 6.941406 15.5 15.5zm0 0" fill="#ff5622" data-original="#FF5622" class="" style="fill:#FFD54F" data-old_color="#ff5622"/><g fill="#26c6da"><path d="m180.847656 178.972656c-9.082031-6.890625-19.910156-10.53125-31.3125-10.53125-11.433594 0-22.289062 3.660156-31.394531 10.589844-3.292969 2.511719-3.933594 7.214844-1.421875 10.511719 2.507812 3.296875 7.214844 3.933593 10.507812 1.425781 6.46875-4.925781 14.183594-7.527344 22.308594-7.527344 8.101563 0 15.796875 2.585938 22.25 7.484375 3.300782 2.503907 8.003906 1.855469 10.507813-1.445312 2.503906-3.300781 1.855469-8.003907-1.445313-10.507813zm0 0" data-original="#26C6DA" class=""/><path d="m193.4375 156.085938c-12.742188-9.667969-27.925781-14.777344-43.902344-14.777344-16.019531 0-31.226562 5.128906-43.980468 14.839844-3.296876 2.507812-3.933594 7.214843-1.425782 10.511718 2.507813 3.292969 7.214844 3.933594 10.511719 1.425782 10.121094-7.707032 22.1875-11.777344 34.894531-11.777344 12.675782 0 24.722656 4.054687 34.835938 11.726562 3.300781 2.503906 8.007812 1.859375 10.507812-1.4375 2.503906-3.300781 1.859375-8.007812-1.441406-10.511718zm0 0" data-original="#26C6DA" class=""/><path d="m205.535156 133.859375c-16.25-12.339844-35.613281-18.859375-56-18.859375-20.425781 0-39.820312 6.542969-56.078125 18.917969-3.296875 2.507812-3.933593 7.214843-1.425781 10.511719 2.515625 3.300781 7.222656 3.929687 10.511719 1.425781 13.625-10.375 29.875-15.855469 46.992187-15.855469 17.082032 0 33.3125 5.464844 46.929688 15.804688 3.296875 2.507812 8.003906 1.863281 10.507812-1.4375 2.507813-3.296876 1.863282-8.003907-1.4375-10.507813zm0 0" data-original="#26C6DA" class=""/></g><path d="m193 304.5h23.160156c4.140625 0 7.5-3.355469 7.5-7.5s-3.359375-7.5-7.5-7.5h-23.160156c-4.144531 0-7.5 3.355469-7.5 7.5s3.355469 7.5 7.5 7.5zm0 0" fill="#ffd54f" data-original="#FFD54F" class="active-path" style="fill:#EB7D16" data-old_color="#ffd54f"/><path d="m216.5 314h-23.160156c-4.140625 0-7.5 3.355469-7.5 7.5s3.359375 7.5 7.5 7.5h23.160156c4.144531 0 7.5-3.355469 7.5-7.5s-3.355469-7.5-7.5-7.5zm0 0" fill="#ffd54f" data-original="#FFD54F" class="active-path" style="fill:#EB7D16" data-old_color="#ffd54f"/></g> </svg>
